<svg width="1440" height="913" viewBox="0 0 1440 913" fill="none" xmlns="http://www.w3.org/2000/svg">
<path opacity="0.2" d="M460.5 829.5C169.997 848.31 35.5 770 0 743V630.5H1441V845C1204.5 1021 896.057 795.465 663.5 814.5C523 826 530 825 460.5 829.5Z" fill="url(#paint0_linear)"/>
<path opacity="0.2" d="M1441 2H1V740C424 704 398.5 928 815.5 851C1040.82 809.394 1227.5 922 1441 843V2Z" fill="url(#paint1_linear)"/>
<path d="M1 0H1441V845C1117 690 1063 925.5 630 800C409.927 736.215 295 676.5 1 740.5V0Z" fill="url(#paint2_linear)"/>
<defs>
<linearGradient id="paint0_linear" x1="42.4997" y1="553.001" x2="1680.5" y2="996.501" gradientUnits="userSpaceOnUse">
<stop stop-color="#0470DC"/>
<stop offset="1" stop-color="#13F1FC"/>
</linearGradient>
<linearGradient id="paint1_linear" x1="82.5" y1="763" x2="1441" y2="-288.5" gradientUnits="userSpaceOnUse">
<stop stop-color="#0470DC"/>
<stop offset="1" stop-color="#13F1FC"/>
</linearGradient>
<linearGradient id="paint2_linear" x1="1.0001" y1="-63.0002" x2="1859.5" y2="1111" gradientUnits="userSpaceOnUse">
<stop stop-color="#0470DC"/>
<stop offset="1" stop-color="#13F1FC"/>
</linearGradient>
</defs>
</svg>