
        <svg class = "plant2" width="39" height="68" viewBox="0 0 39 68" fill="none" xmlns="http://www.w3.org/2000/svg">
          <path d="M10.9171 63.8979C12.4642 61.2976 10.7108 58.1121 8.70995 55.7902C6.70908 53.4683 4.26472 51.0709 4.31629 48.1025C4.39365 43.8552 9.31846 41.3492 13.2532 39.0982C16.1735 37.4275 18.8671 35.4457 21.2773 33.1944C22.2887 32.3298 23.1235 31.307 23.7423 30.1741C24.557 28.5129 24.5364 26.6252 24.4849 24.8035C24.313 18.744 23.9846 12.6907 23.4999 6.6438" stroke="#3F3D56" stroke-width="4" stroke-miterlimit="10"/>
          <path d="M30.9825 6.30848C30.9277 5.19913 30.5682 4.12032 29.9373 3.17175C29.3063 2.22317 28.4243 1.43544 27.3727 0.881335L25.7534 3.8167L25.805 0.267837C24.3372 -0.126727 22.7704 -0.0844361 21.3306 0.388641C19.8908 0.861719 18.6524 1.74113 17.7941 2.89998C16.9358 4.05884 16.5019 5.43724 16.555 6.83637C16.6081 8.23551 17.1455 9.58302 18.0896 10.6846C19.0338 11.7861 20.3359 12.5847 21.8081 12.9652C23.2803 13.3457 24.8465 13.2884 26.2809 12.8016C27.7152 12.3147 28.9435 11.4235 29.7885 10.2565C30.6335 9.0895 31.0516 7.70703 30.9825 6.30848Z" fill="#57B894"/>
          <path d="M18.0903 51.1415C17.3311 52.4881 16.0893 53.5549 14.5728 54.1633C13.0564 54.7716 11.3576 54.8844 9.76104 54.4829C8.1645 54.0813 6.7673 53.1898 5.80359 51.9577C4.83988 50.7256 4.36824 49.2278 4.46769 47.7153C4.56715 46.2028 5.23166 44.7675 6.34987 43.6501C7.46808 42.5326 8.97202 41.8008 10.6097 41.5774C12.2473 41.3539 13.9191 41.6524 15.3448 42.4228C16.7706 43.1931 17.8637 44.3886 18.441 45.8087L13.9184 49.1736L18.8948 48.1164C18.896 49.1693 18.62 50.2069 18.0903 51.1415Z" fill="#57B894"/>
          <path d="M14.4805 38.2812C13.5305 38.3237 12.5806 38.194 11.6856 37.8995C10.7905 37.6051 9.96788 37.1516 9.26489 36.5653C8.56191 35.979 7.99245 35.2714 7.58924 34.483C7.18602 33.6947 6.95699 32.8412 6.91532 31.9716C6.85822 30.9353 7.07215 29.9014 7.53932 28.956C7.97264 28.0707 8.61279 27.2832 9.41467 26.6488C10.2165 26.0145 11.1607 25.5487 12.1805 25.2844L12.1444 28.0168L13.7791 25.0484C14.7292 25.0059 15.679 25.1356 16.574 25.4301C17.4691 25.7246 18.2917 26.178 18.9947 26.7643C19.6977 27.3506 20.2672 28.0583 20.6704 28.8467C21.0736 29.635 21.3026 30.4885 21.3443 31.3581C21.3867 32.1224 21.2819 32.8875 21.0349 33.6186C20.5994 34.9185 19.7362 36.0638 18.5632 36.8983C17.3902 37.7327 15.9645 38.2157 14.4805 38.2812Z" fill="#57B894"/>
          <path d="M32.0707 27.5828C30.9597 27.6202 29.8543 27.4222 28.8407 27.0044C27.827 26.5866 26.9325 25.9603 26.2269 25.1741C25.5212 24.388 25.0234 23.4633 24.7724 22.4722C24.5213 21.4812 24.5238 20.4504 24.7795 19.4603C25.0353 18.4702 25.5374 17.5476 26.2468 16.7643C26.9562 15.9809 27.8537 15.3581 28.8693 14.9444C29.8849 14.5306 30.9913 14.3371 32.102 14.3789C33.2128 14.4207 34.298 14.6966 35.2731 15.1853L33.9942 18.3944L36.6242 16.0819C37.6875 16.9623 38.4402 18.1125 38.7864 19.3859C39.1326 20.6593 39.0566 21.9982 38.5682 23.2319C38.0797 24.4656 37.2009 25.5383 36.0437 26.3131C34.8865 27.088 33.5034 27.53 32.0707 27.5828Z" fill="#57B894"/>
          <path opacity="0.1" d="M30.0079 8.07332C28.3422 8.24322 26.7126 8.71987 25.0366 8.81425C23.3606 8.90864 21.5196 8.54054 20.4625 7.34656C19.8901 6.70474 19.6013 5.89303 19.1217 5.19457C18.6643 4.54252 18.0393 4.00294 17.3013 3.62305C16.8608 4.45866 16.6175 5.36981 16.5873 6.29717C16.5572 7.22453 16.7407 8.14733 17.1261 9.00546C17.5115 9.86358 18.0901 10.6378 18.8241 11.2777C19.5582 11.9177 20.4313 12.4089 21.3866 12.7195C22.3419 13.0302 23.3579 13.1532 24.3686 13.0806C25.3793 13.008 26.362 12.7414 27.2526 12.2982C28.1433 11.855 28.9219 11.2451 29.5379 10.5083C30.1539 9.77138 30.5934 8.92406 30.8278 8.02142C30.5545 8.03086 30.2812 8.04973 30.0079 8.07332Z" fill="black"/>
          <path opacity="0.1" d="M32.0706 27.5828C30.8254 27.6325 29.5872 27.3876 28.4755 26.8717C27.3638 26.3558 26.4162 25.5863 25.7242 24.6376C25.0322 23.6889 24.6191 22.5929 24.5249 21.4555C24.4307 20.3181 24.6584 19.1777 25.1862 18.1443C25.7634 18.4979 26.2592 18.9516 26.6456 19.4798C27.1613 20.1924 27.4707 21.0136 28.0792 21.6696C29.2034 22.8824 31.1321 23.2788 32.8751 23.2033C34.6182 23.1278 36.3096 22.6795 38.032 22.5332C38.2744 22.5332 38.5219 22.4954 38.7643 22.4907C38.4058 23.8903 37.5583 25.1448 36.3503 26.0637C35.1423 26.9827 33.6398 27.516 32.0706 27.5828Z" fill="black"/>
          <path opacity="0.1" d="M14.4805 38.2815C13.5305 38.324 12.5806 38.1943 11.6856 37.8998C10.7905 37.6053 9.96788 37.1519 9.26489 36.5656C8.56191 35.9793 7.99245 35.2717 7.58924 34.4833C7.18602 33.695 6.95699 32.8415 6.91532 31.9719C6.85822 30.9356 7.07215 29.9018 7.53932 28.9563C8.14093 29.3138 8.66537 29.7698 9.08638 30.3013C9.64848 31.028 9.99915 31.8634 10.6334 32.5335C11.8556 33.7794 13.9081 34.2183 15.7594 34.1758C17.6107 34.1333 19.2764 33.7369 21.0555 33.6142C20.6197 34.9179 19.7538 36.0663 18.5767 36.9019C17.3995 37.7375 15.9687 38.2194 14.4805 38.2815Z" fill="black"/>
          <path opacity="0.1" d="M18.0904 51.1416C17.7027 51.9342 17.1482 52.6493 16.4585 53.2458C15.7689 53.8423 14.9576 54.3087 14.0709 54.6183C13.1843 54.9279 12.2398 55.0747 11.2912 55.0502C10.3426 55.0258 9.40855 54.8306 8.54239 54.4758C7.67624 54.121 6.89494 53.6135 6.24309 52.9824C5.59123 52.3512 5.0816 51.6088 4.74328 50.7974C4.40497 49.986 4.2446 49.1216 4.27133 48.2536C4.29806 47.3855 4.51137 46.5307 4.89907 45.738C5.4942 46.0963 6.02923 46.5319 6.48738 47.0311C7.17325 47.8003 7.62705 48.6687 8.42121 49.3907C9.90124 50.7216 12.2889 51.2785 14.4187 51.3209C15.6453 51.3255 16.8712 51.2656 18.0904 51.1416Z" fill="black"/>
          <path d="M0 60.9057C0 60.9057 5.71382 60.7452 7.43621 59.622C9.15861 58.4988 16.2029 57.1586 16.6516 58.9613C17.1002 60.7641 25.2326 67.928 18.7865 67.9563C12.3404 67.9846 3.80061 67.036 2.08337 66.0686C0.366127 65.1011 0 60.9057 0 60.9057Z" fill="#656380"/>
          <path opacity="0.2" d="M18.9 67.3285C12.4487 67.3757 3.91406 66.4083 2.19682 65.4408C0.886973 64.7141 0.366136 62.0949 0.190802 60.8867H0C0 60.8867 0.360982 65.101 2.06275 66.0779C3.76452 67.0548 12.3146 68.0034 18.7659 67.9656C20.6275 67.9656 21.267 67.3474 21.236 66.446C20.9937 66.9793 20.2872 67.3191 18.9 67.3285Z" fill="black"/>
          </svg>
          