<?xml version="1.0" encoding="utf-8"?>
<svg width="1816" height="1219" viewBox="232.903 32.103 1380.241 966.882" fill="none" xmlns="http://www.w3.org/2000/svg">
  <path d="M131.999 304.172C53.5898 387.569 124.626 651.831 152.946 720.554C216.448 875.468 110.575 857.441 107.614 998.058C104.652 1138.68 391.818 1216.62 657.178 1137.76C977.191 1042.66 857.064 993.38 1291.09 1008.76C1725.12 1024.13 1770.57 639.195 1743.12 593.768C1719.86 555.273 1770.47 388.877 1701.93 361.54C1669.63 348.658 1669.93 239.04 1558.86 262.227C1437.4 287.581 1333.79 108.289 1209.16 198.281C1084.54 288.272 1078.12 80.2029 900.135 139.749C722.151 199.294 517.244 131.617 414.927 185.54C218.87 288.866 229.187 200.801 131.999 304.172Z" fill="url(#paint0_linear)"/>
  <path d="M1105.75 114.573C1105.75 114.573 1079.62 112.997 1082.67 131.349C1082.67 131.349 1082.06 134.592 1085 136.065C1085 136.065 1085.05 134.688 1087.69 135.163C1088.62 135.321 1089.58 135.367 1090.53 135.301C1091.81 135.216 1093.03 134.713 1094 133.869C1094 133.869 1101.35 130.826 1104.21 118.793C1104.21 118.793 1106.32 116.17 1106.24 115.496L1101.83 117.382C1101.83 117.382 1103.33 120.569 1102.15 123.22C1102.15 123.22 1102.01 117.499 1101.16 117.63C1100.99 117.63 1098.86 118.738 1098.86 118.738C1098.86 118.738 1101.46 124.293 1099.5 128.327C1099.5 128.327 1100.25 121.485 1098.05 119.137L1094.95 120.982C1094.95 120.982 1097.98 126.717 1095.92 131.398C1095.92 131.398 1096.45 124.218 1094.29 121.423L1091.48 123.626C1091.48 123.626 1094.33 129.277 1092.59 133.16C1092.59 133.16 1092.36 124.803 1090.87 124.17C1090.87 124.17 1088.41 126.345 1088.03 127.24C1088.03 127.24 1089.98 131.37 1088.77 133.511C1088.77 133.511 1088.03 127.942 1087.4 127.914C1087.4 127.914 1084.94 131.604 1084.69 134.11C1084.81 131.774 1085.54 129.51 1086.81 127.543C1085.39 127.811 1084.08 128.488 1083.05 129.491C1083.05 129.491 1083.43 126.882 1087.41 126.655C1087.41 126.655 1089.47 123.853 1089.98 123.681C1089.98 123.681 1086.02 123.35 1083.62 124.417C1083.62 124.417 1085.73 121.96 1090.7 123.075L1093.45 120.803C1093.45 120.803 1088.24 120.115 1086.03 120.879C1086.03 120.879 1088.57 118.704 1094.2 120.287L1097.23 118.477C1097.23 118.477 1092.78 117.52 1090.13 117.864C1090.13 117.864 1092.93 116.356 1098.11 117.988L1100.28 117.017C1100.28 117.017 1097.02 116.377 1096.07 116.274C1095.11 116.17 1095.06 115.909 1095.06 115.909C1097.13 115.565 1099.24 115.804 1101.18 116.597C1101.18 116.597 1105.83 114.863 1105.75 114.573Z" fill="#6C63FF"/>
  <circle cx="1506.93" cy="225.041" r="6.5" fill="#FECB42"/>
  <circle cx="1150.93" cy="166.04" r="34.5" fill="#E8F5FF"/>
  <defs>
    <linearGradient id="paint0_linear" x1="89.5473" y1="345.598" x2="2031.85" y2="852.308" gradientUnits="userSpaceOnUse">
      <stop stop-color="#0470DC"/>
      <stop offset="1" stop-color="#70DDFF"/>
    </linearGradient>
  </defs>
</svg>