<svg width="96" height="383" viewBox="0 0 96 383" fill="none" xmlns="http://www.w3.org/2000/svg">
<path d="M29.8439 84.2959H23.9492V104.806H29.8439V84.2959Z" fill="#70DDFF"/>
<path d="M78.9578 78.7012H23.9492V84.2961H78.9578V78.7012Z" fill="#70DDFF"/>
<path d="M28.3096 139.295C39.3433 139.295 48.2878 130.806 48.2878 120.334C48.2878 109.861 39.3433 101.372 28.3096 101.372C17.2759 101.372 8.3313 109.861 8.3313 120.334C8.3313 130.806 17.2759 139.295 28.3096 139.295Z" fill="url(#paint0_linear)"/>
<path d="M28.3097 134.742C38.4782 134.742 46.7213 126.919 46.7213 117.268C46.7213 107.617 38.4782 99.793 28.3097 99.793C18.1412 99.793 9.89795 107.617 9.89795 117.268C9.89795 126.919 18.1412 134.742 28.3097 134.742Z" fill="#FFEB3B"/>
<path d="M78.9578 24.6216H73.0626V302.469H78.9578V24.6216Z" fill="#70DDFF"/>
<path d="M76.4543 27.9325C84.5534 27.9325 91.119 21.701 91.119 14.0141C91.119 6.32719 84.5534 0.0957031 76.4543 0.0957031C68.3551 0.0957031 61.7894 6.32719 61.7894 14.0141C61.7894 21.701 68.3551 27.9325 76.4543 27.9325Z" fill="#4F79A4"/>
<path d="M55.3774 99.2109H0.369141V104.806H55.3774V99.2109Z" fill="#70DDFF"/>
<path d="M76.7771 382.668C87.0972 382.668 95.5278 385.014 95.5278 375.219V304.017C95.5151 299.299 93.5359 294.778 90.0226 291.441C86.5094 288.104 81.7476 286.221 76.7771 286.205C71.8066 286.221 67.0448 288.104 63.5316 291.441C60.0184 294.778 58.0393 299.299 58.0265 304.017V375.219C58.0265 385.014 66.3924 382.668 76.7771 382.668Z" fill="#70DDFF"/>
<defs>
<linearGradient id="paint0_linear" x1="-21836" y1="14126.5" x2="-21836" y2="13187.9" gradientUnits="userSpaceOnUse">
<stop stop-color="#808080" stop-opacity="0.25"/>
<stop offset="0.54" stop-color="#808080" stop-opacity="0.12"/>
<stop offset="1" stop-color="#808080" stop-opacity="0.1"/>
</linearGradient>
</defs>
</svg>
