<?xml version="1.0" encoding="utf-8"?>
<svg width="1440" height="734" viewBox="-92.585 0 1743.624 734" fill="none" xmlns="http://www.w3.org/2000/svg" xmlns:xlink="http://www.w3.org/1999/xlink">
  <path d="M 124.61 77.98 C 40.454 67.182 -51.806 137.808 -87.415 174.471 L -98.998 733.324 L 1708.763 733.324 L 1710.603 208.968 C 1622.713 233.965 1645.964 120.476 1465.873 27.985 C 1285.784 -64.506 1156.511 99.479 1013.139 168.472 C 869.767 237.465 747.127 53.982 644.304 50.483 C 541.478 46.983 512.929 127.976 399.707 174.471 C 286.482 220.966 229.806 91.479 124.61 77.98 Z" fill="white" style="" transform="matrix(0.999996, -0.002918, 0.002918, 0.999996, -1.067055, 2.352893)"/>
  <circle cx="197.5" cy="126.04" r="6.5" fill="#FFEB3B"/>
  <circle cx="1110.5" cy="200.04" r="6.5" fill="#DCE7FF"/>
  <circle cx="1208.5" cy="163.04" r="3.5" fill="#6C63FF"/>
  <circle cx="1071" cy="166.54" r="13" fill="#70DDFF"/>
</svg>