 <svg class = "plant1" width="45" height="86" viewBox="0 0 45 86" fill="none" xmlns="http://www.w3.org/2000/svg">
              <path d="M12.5966 80.6018C14.3817 77.3217 12.3586 73.3035 10.0499 70.3746C7.74121 67.4457 4.92079 64.4217 4.9803 60.6772C5.06955 55.3196 10.752 52.1586 15.2921 49.319C18.6617 47.2116 21.7697 44.7117 24.5507 41.8718C25.7177 40.7812 26.6809 39.4911 27.3949 38.062C28.335 35.9665 28.3112 33.5853 28.2517 31.2875C28.0534 23.6439 27.6745 16.0082 27.1152 8.38049" stroke="#3F3D56" stroke-width="4" stroke-miterlimit="10"/>
              <path d="M35.7491 7.95763C35.6858 6.55828 35.271 5.19744 34.543 4.0009C33.815 2.80435 32.7973 1.81069 31.5839 1.11173L29.7155 4.81445L29.775 0.337854C28.0814 -0.159856 26.2736 -0.106509 24.6122 0.490239C22.9509 1.08699 21.522 2.19629 20.5316 3.65809C19.5413 5.11989 19.0406 6.85863 19.1019 8.62352C19.1632 10.3884 19.7833 12.0882 20.8727 13.4777C21.9621 14.8672 23.4645 15.8746 25.1632 16.3545C26.8619 16.8345 28.6691 16.7622 30.3241 16.1481C31.9791 15.534 33.3963 14.4098 34.3713 12.9377C35.3464 11.4657 35.8288 9.72178 35.7491 7.95763Z" fill="#57B894"/>
              <path d="M20.8734 64.5109C19.9974 66.2094 18.5645 67.5552 16.8148 68.3225C15.065 69.0899 13.1049 69.2323 11.2627 68.7257C9.42055 68.2192 7.80839 67.0946 6.69642 65.5404C5.58445 63.9862 5.04025 62.0968 5.155 60.1889C5.26976 58.281 6.03651 56.4706 7.32675 55.061C8.61699 53.6514 10.3523 52.7283 12.2419 52.4465C14.1314 52.1646 16.0604 52.5411 17.7056 53.5129C19.3507 54.4846 20.612 55.9926 21.278 57.784L16.0596 62.0285L21.8016 60.695C21.803 62.0231 21.4846 63.3319 20.8734 64.5109Z" fill="#57B894"/>
              <path d="M16.7082 48.289C15.612 48.3426 14.5161 48.1789 13.4833 47.8075C12.4506 47.436 11.5014 46.8641 10.6902 46.1245C9.87909 45.3849 9.22202 44.4923 8.75678 43.4978C8.29153 42.5034 8.02726 41.4268 7.97918 40.3299C7.9133 39.0226 8.16014 37.7185 8.69918 36.5259C9.19917 35.4092 9.93779 34.4158 10.863 33.6156C11.7883 32.8154 12.8777 32.2279 14.0544 31.8945L14.0127 35.3413L15.899 31.5969C16.9951 31.5433 18.0911 31.7069 19.1238 32.0783C20.1566 32.4498 21.1058 33.0217 21.917 33.7613C22.7281 34.5009 23.3852 35.3936 23.8504 36.388C24.3157 37.3825 24.5799 38.4591 24.628 39.556C24.6769 40.5201 24.556 41.4852 24.271 42.4074C23.7685 44.0472 22.7726 45.4919 21.4191 46.5445C20.0656 47.5971 18.4205 48.2063 16.7082 48.289Z" fill="#57B894"/>
              <path d="M37.0046 34.7937C35.7227 34.8408 34.4473 34.5911 33.2777 34.0641C32.1081 33.5371 31.076 32.747 30.2617 31.7554C29.4475 30.7637 28.8731 29.5973 28.5835 28.3471C28.2938 27.097 28.2966 25.7968 28.5917 24.5478C28.8868 23.2989 29.4662 22.1351 30.2847 21.147C31.1033 20.1589 32.1388 19.3733 33.3107 18.8514C34.4826 18.3294 35.7591 18.0853 37.0408 18.138C38.3224 18.1907 39.5746 18.5388 40.6997 19.1552L39.224 23.2032L42.2587 20.2863C43.4855 21.3968 44.354 22.8477 44.7535 24.454C45.153 26.0602 45.0653 27.7491 44.5017 29.3053C43.9381 30.8616 42.924 32.2147 41.5888 33.1921C40.2536 34.1696 38.6577 34.7271 37.0046 34.7937Z" fill="#57B894"/>
              <path opacity="0.1" d="M34.6245 10.1841C32.7026 10.3984 30.8223 10.9997 28.8885 11.1187C26.9547 11.2378 24.8304 10.7734 23.6106 9.26734C22.9501 8.45774 22.6169 7.43383 22.0636 6.55279C21.5358 5.73027 20.8146 5.04964 19.9631 4.57043C19.4548 5.62449 19.1741 6.77383 19.1393 7.94362C19.1045 9.11341 19.3163 10.2774 19.761 11.3599C20.2057 12.4424 20.8732 13.419 21.7202 14.2262C22.5672 15.0334 23.5746 15.6531 24.6769 16.0449C25.7791 16.4367 26.9515 16.5919 28.1177 16.5004C29.2839 16.4088 30.4178 16.0725 31.4454 15.5135C32.4731 14.9544 33.3716 14.1851 34.0823 13.2556C34.7931 12.326 35.3002 11.2572 35.5706 10.1186C35.2553 10.1305 34.9399 10.1543 34.6245 10.1841Z" fill="black"/>
              <path opacity="0.1" d="M37.0046 34.7935C35.5678 34.8562 34.139 34.5472 32.8563 33.8964C31.5736 33.2457 30.4803 32.2751 29.6818 31.0783C28.8833 29.8816 28.4067 28.4991 28.298 27.0644C28.1893 25.6296 28.4521 24.1911 29.061 22.8876C29.7271 23.3336 30.2991 23.9059 30.745 24.5722C31.34 25.4711 31.697 26.507 32.3991 27.3344C33.6963 28.8643 35.9217 29.3644 37.9329 29.2691C39.944 29.1739 41.8957 28.6084 43.8831 28.4238C44.1628 28.4238 44.4484 28.3762 44.728 28.3702C44.3144 30.1357 43.3365 31.7181 41.9427 32.8773C40.5489 34.0365 38.8152 34.7092 37.0046 34.7935Z" fill="black"/>
              <path opacity="0.1" d="M16.7082 48.2889C15.612 48.3425 14.5161 48.1788 13.4833 47.8074C12.4506 47.4359 11.5014 46.864 10.6902 46.1244C9.87909 45.3848 9.22202 44.4922 8.75678 43.4978C8.29153 42.5033 8.02726 41.4267 7.97918 40.3298C7.9133 39.0226 8.16014 37.7185 8.69918 36.5259C9.39334 36.9769 9.99847 37.552 10.4843 38.2225C11.1328 39.1392 11.5374 40.1929 12.2693 41.0382C13.6795 42.6098 16.0477 43.1634 18.1839 43.1098C20.32 43.0562 22.2419 42.5562 24.2948 42.4014C23.7919 44.0459 22.7928 45.4946 21.4346 46.5486C20.0763 47.6027 18.4254 48.2106 16.7082 48.2889Z" fill="black"/>
              <path opacity="0.1" d="M20.8735 64.5108C20.4261 65.5107 19.7863 66.4126 18.9905 67.1651C18.1948 67.9176 17.2587 68.5059 16.2357 68.8964C15.2127 69.287 14.1228 69.4721 13.0282 69.4413C11.9337 69.4104 10.856 69.1642 9.85657 68.7166C8.85716 68.2691 7.95566 67.629 7.20352 66.8328C6.45138 66.0367 5.86334 65.1002 5.47298 64.0767C5.08262 63.0532 4.89758 61.9628 4.92842 60.8678C4.95926 59.7728 5.20538 58.6946 5.65273 57.6947C6.33942 58.1467 6.95676 58.6961 7.4854 59.3258C8.27678 60.2961 8.80041 61.3915 9.71674 62.3023C11.4245 63.981 14.1794 64.6835 16.6369 64.7371C18.0522 64.7428 19.4668 64.6673 20.8735 64.5108Z" fill="black"/>
              <path d="M0 76.8275C0 76.8275 6.59286 76.6251 8.58025 75.2083C10.5676 73.7915 18.6957 72.1008 19.2133 74.3749C19.731 76.6489 29.1146 85.6855 21.6767 85.7213C14.2389 85.757 4.38532 84.5604 2.40389 83.3401C0.422455 82.1197 0 76.8275 0 76.8275Z" fill="#656380"/>
              <path opacity="0.2" d="M21.8077 84.9295C14.3639 84.9891 4.51623 83.7687 2.53479 82.5483C1.02343 81.6316 0.422465 78.3277 0.220156 76.8037H0C0 76.8037 0.416517 82.1197 2.3801 83.352C4.34368 84.5842 14.2092 85.7808 21.6529 85.7332C23.801 85.7332 24.5388 84.9533 24.5031 83.8163C24.2235 84.489 23.4083 84.9176 21.8077 84.9295Z" fill="black"/>
              </svg>
